<?xml version="1.0" encoding="UTF-8"?>
<svg version="1.1" xmlns="http://www.w3.org/2000/svg" width="362" height="351">
<path d="M0 0 C1.47273887 -0.00463578 2.94547656 -0.00966145 4.41821289 -0.01504517 C8.40215706 -0.02810122 12.38608442 -0.03460121 16.37004662 -0.03905582 C18.86678157 -0.04199862 21.36351206 -0.04610571 23.86024475 -0.05056 C31.69415879 -0.06421935 39.52806247 -0.07389266 47.36198759 -0.07776189 C56.36325423 -0.08223372 65.36436835 -0.09974743 74.36558867 -0.12876248 C81.35023408 -0.15048465 88.33483692 -0.16047181 95.31951571 -0.16180301 C99.47828336 -0.16284387 103.63690736 -0.16859613 107.79563904 -0.18662262 C111.71589555 -0.20328591 115.63590323 -0.20517192 119.55618286 -0.19648361 C120.98142674 -0.19572278 122.40668503 -0.19992699 123.83189392 -0.20994186 C138.87817697 -0.30932456 152.56125511 2.05260421 166.39257812 8.16113281 C167.66488281 8.69673828 167.66488281 8.69673828 168.96289062 9.24316406 C177.51549061 13.13445955 185.95648258 19.29895429 192.39257812 26.16113281 C191.29231399 29.46192521 190.56548475 30.08593563 187.95507812 32.22363281 C179.09439428 39.30076087 179.09439428 39.30076087 172.39257812 48.16113281 C171.73257812 48.16113281 171.07257813 48.16113281 170.39257812 48.16113281 C170.39257812 48.82113281 170.39257812 49.48113281 170.39257812 50.16113281 C169.73257812 50.16113281 169.07257813 50.16113281 168.39257812 50.16113281 C168.18632812 50.69222656 167.98007812 51.22332031 167.76757812 51.77050781 C165.81296621 55.16886717 163.17134096 57.67169209 160.39257812 60.41113281 C159.84601563 60.96542969 159.29945313 61.51972656 158.73632812 62.09082031 C154.64596482 66.16113281 154.64596482 66.16113281 152.39257812 66.16113281 C152.12445313 66.80050781 151.85632813 67.43988281 151.58007812 68.09863281 C150.39257812 70.16113281 150.39257812 70.16113281 147.39257812 71.16113281 C146.7012274 72.4818358 146.03842564 73.81759152 145.39257812 75.16113281 C144.14754037 76.58172049 142.84498259 77.9527294 141.50753784 79.28668213 C140.69702972 80.09993958 139.88652161 80.91319702 139.05145264 81.75109863 C138.16097229 82.63438843 137.27049194 83.51767822 136.35302734 84.42773438 C135.40650192 85.37369546 134.46041705 86.32009754 133.51473999 87.26690674 C130.94915138 89.833069 128.37744454 92.39301946 125.80459738 94.95190144 C123.11575979 97.62823379 120.43258751 100.31023361 117.74880981 102.99163818 C112.66714199 108.06709064 107.58039758 113.13742344 102.49181092 118.2059381 C96.69832994 123.97706187 90.91052915 129.75386788 85.12319922 135.53115892 C73.21930248 147.41415238 61.30829048 159.28998728 49.39257812 171.16113281 C46.40895214 169.73096079 44.34794562 168.34904932 42.03613281 165.96826172 C41.40157166 165.32063873 40.7670105 164.67301575 40.11322021 164.00576782 C39.43712708 163.30680389 38.76103394 162.60783997 38.06445312 161.88769531 C36.61030994 160.40824955 35.15587352 158.92909196 33.70117188 157.45019531 C31.42189468 155.12140059 29.14591785 152.78957108 26.87548828 150.45214844 C24.67660602 148.19251829 22.46517493 145.94577014 20.25195312 143.70019531 C19.2499588 142.65782211 19.2499588 142.65782211 18.22772217 141.59439087 C11.98048313 135.28192047 5.49344235 131.34503829 -3.58789062 131.07128906 C-12.90742068 131.51399512 -19.26450996 133.93250806 -25.98242188 140.47363281 C-31.38696104 149.41190912 -32.94723171 156.92272767 -31.24023438 167.41894531 C-28.12540403 177.95816579 -16.38397086 186.5242978 -8.84179688 194.02441406 C-7.83508528 195.029253 -6.82859984 196.03431857 -5.82232666 197.03959656 C-3.20278635 199.65536523 -0.58025911 202.26811809 2.04296875 204.88018799 C4.71081701 207.53775493 7.37579678 210.19819498 10.04101562 212.85839844 C14.72692695 217.5348081 19.41529465 222.20874005 24.10552979 226.8808136 C25.74318444 228.51364982 27.36931359 230.15807766 28.98773193 231.8099823 C35.61627877 238.29052619 41.38062857 239.48033673 50.27587891 239.47143555 C61.2821312 239.24456641 66.73144794 233.55430614 74.39257812 226.16113281 C75.13121094 225.45085937 75.86984375 224.74058594 76.63085938 224.00878906 C79.60585479 221.08981993 82.46169448 218.15565168 85.08007812 214.91113281 C87.32130882 212.2458855 89.65489021 210.29044563 92.39257812 208.16113281 C92.72257813 207.50113281 93.05257812 206.84113281 93.39257812 206.16113281 C94.05257812 206.16113281 94.71257812 206.16113281 95.39257812 206.16113281 C95.72257813 205.17113281 96.05257812 204.18113281 96.39257812 203.16113281 C98.83007812 200.47363281 98.83007812 200.47363281 101.39257812 198.16113281 C102.05257812 198.16113281 102.71257812 198.16113281 103.39257812 198.16113281 C103.39257812 197.50113281 103.39257812 196.84113281 103.39257812 196.16113281 C104.67773438 194.93457031 104.67773438 194.93457031 106.45507812 193.53613281 C110.05480894 190.58025629 112.96725887 187.29870829 115.91210938 183.70019531 C116.40066406 183.19230469 116.88921875 182.68441406 117.39257812 182.16113281 C118.05257812 182.16113281 118.71257812 182.16113281 119.39257812 182.16113281 C119.39257812 181.50113281 119.39257812 180.84113281 119.39257812 180.16113281 C120.05257812 180.16113281 120.71257812 180.16113281 121.39257812 180.16113281 C121.66506724 179.56360419 121.93755636 178.96607557 122.21830273 178.35044003 C123.36477483 176.212969 124.47303543 174.83378108 126.1809845 173.13221741 C126.7486705 172.56178207 127.31635651 171.99134674 127.90124512 171.40362549 C128.52204956 170.7900116 129.142854 170.17639771 129.7824707 169.54418945 C130.43797409 168.88839401 131.09347748 168.23259857 131.7688446 167.55693054 C133.93689253 165.3902757 136.11194187 163.23079432 138.28710938 161.07128906 C139.797286 159.56484473 141.30702006 158.05795662 142.81632996 156.55064392 C146.79338105 152.58122953 150.77639624 148.61785234 154.76068115 144.65570068 C158.80366845 140.63310549 162.84106787 136.60491088 166.87890625 132.57714844 C173.4079403 126.06569432 179.94039053 119.55769126 186.47732544 113.0541687 C189.7870204 109.76107732 193.09266333 106.46403256 196.39257812 103.16113281 C207.79882813 91.75488281 207.79882813 91.75488281 209.66601562 89.89160156 C211.17801659 88.37617978 212.67702721 86.84781971 214.17382812 85.31738281 C216.39257813 83.16113281 216.39257813 83.16113281 219.39257812 81.16113281 C223.01641433 84.78496902 221.5218015 96.26678209 221.53921509 101.08454895 C221.5387619 102.35022202 221.53830872 103.61589508 221.5378418 104.91992188 C221.54083957 106.28930248 221.54424352 107.65868224 221.54801941 109.02806091 C221.55680116 112.72456851 221.55919507 116.4210529 221.5598352 120.11756992 C221.56054907 122.43387908 221.56268976 124.75018246 221.56533241 127.06649017 C221.57456692 135.16688914 221.57866972 143.26727172 221.57788086 151.36767578 C221.57728074 158.88674377 221.58782452 166.40573986 221.60362452 173.92478967 C221.61675368 180.40665274 221.6220625 186.88849247 221.62142545 193.37036872 C221.62117202 197.22997303 221.6239368 201.08951339 221.6346035 204.94910431 C221.64437539 208.58369923 221.6443023 212.21817023 221.63708687 215.85276985 C221.63556402 217.80038691 221.64382397 219.74800421 221.65252686 221.69560242 C221.55595444 249.1227475 212.26266703 273.35159985 193.01757812 292.91113281 C165.63841416 319.8872016 131.46518772 320.31902988 95.32226562 320.32910156 C93.96963609 320.330529 92.61700673 320.3321258 91.26437759 320.3338871 C84.17917714 320.34309531 77.0939953 320.34722779 70.00878906 320.34643555 C63.47018274 320.34583629 56.93165931 320.35637005 50.39307392 320.37217921 C44.72454575 320.38538189 39.05604425 320.39061417 33.38750088 320.38998014 C30.02626171 320.38972881 26.66515435 320.39333866 23.30392075 320.40315819 C-13.59564918 320.50086816 -45.24094273 317.69999437 -73.00195312 290.84472656 C-96.38413728 265.98835917 -99.24619321 237.06292828 -99.11179233 204.49807453 C-99.0977643 200.24592711 -99.10442142 195.99380051 -99.10792542 191.74163818 C-99.11061253 184.61072909 -99.09727803 177.47998976 -99.07397461 170.34912109 C-99.04733342 162.14080131 -99.04563642 153.93276428 -99.05736297 145.72441602 C-99.068191 137.7751517 -99.06191707 129.82598823 -99.04780769 121.87673187 C-99.0420954 118.51664555 -99.04209252 115.1566342 -99.04687309 111.79654694 C-99.05169244 107.83343826 -99.04133934 103.87063414 -99.01991844 99.90758324 C-99.01441868 98.46538253 -99.01382137 97.02315214 -99.01887131 95.58094978 C-99.1045744 67.56454608 -88.40830597 44.38735574 -69.13867188 24.62988281 C-49.75516094 6.25330751 -25.97912396 0.01913368 0 0 Z " fill="#2B60E3" transform="translate(114.607421875,9.8388671875)"/>
<path d="M0 0 C0.99 0.495 0.99 0.495 2 1 C3.27572418 8.61770681 3.13506483 16.26003199 3.11352539 23.96508789 C3.11324282 25.35556028 3.11340261 26.74603282 3.1139679 28.13650513 C3.11425315 31.88586588 3.10840048 35.63519421 3.10139394 39.38454747 C3.09511504 43.31230709 3.09455303 47.24006756 3.09336853 51.16783142 C3.09026854 58.59426715 3.0820732 66.02068805 3.07201904 73.44711727 C3.06081642 81.90665512 3.05533702 90.36619369 3.05032361 98.82573712 C3.0398894 116.21716664 3.02231588 133.60858175 3 151 C2.67 151 2.34 151 2 151 C1.67 122.29 1.34 93.58 1 64 C-2.465 67.96 -2.465 67.96 -6 72 C-6.66 72 -7.32 72 -8 72 C-8 72.66 -8 73.32 -8 74 C-8.66 74 -9.32 74 -10 74 C-10 74.66 -10 75.32 -10 76 C-13.09063422 79.35554573 -16.4467884 82.15743072 -20 85 C-21.68762851 86.6454378 -23.3540349 88.31288577 -25 90 C-27.53174011 92.53174011 -30.06291423 95.06141627 -32.625 97.5625 C-34.99861757 99.88354633 -34.99861757 99.88354633 -36.6875 102.3125 C-37.120625 102.869375 -37.55375 103.42625 -38 104 C-38.66 104 -39.32 104 -40 104 C-40.3403125 104.8353125 -40.3403125 104.8353125 -40.6875 105.6875 C-42.84453833 109.4879961 -45.92376859 112.1786655 -49.375 114.8125 C-52.37593025 117.31327521 -54.77319985 120.08642018 -57.3046875 123.05078125 C-59.42229661 125.4855438 -61.7189054 127.7189054 -64 130 C-64.763125 130.94875 -65.52625 131.8975 -66.3125 132.875 C-68.22684004 135.21474894 -70.26094991 137.16582926 -72.5625 139.125 C-76.28887213 142.30483755 -79.78423351 145.66715708 -83.25 149.125 C-84.01098999 149.87934326 -84.01098999 149.87934326 -84.78735352 150.64892578 C-87.74758355 153.62040029 -90.38372376 156.72827772 -93 160 C-94.11330289 161.03609396 -95.25741009 162.04066594 -96.4375 163 C-98.689939 164.86575419 -100.79279304 166.75968561 -102.8125 168.875 C-105 171 -105 171 -107 171 C-107.2475 171.61875 -107.495 172.2375 -107.75 172.875 C-109.23740369 175.40358627 -110.43678009 175.71839004 -113 177 C-113.70394612 178.31403276 -114.36345658 179.6520257 -115 181 C-119.03122621 187.24189864 -123.80627794 189.39636171 -131 191 C-138.30377078 191.77201378 -146.46743465 191.8529451 -153 188 C-153.33 187.01 -153.66 186.02 -154 185 C-155.30783414 184.28460355 -156.64592439 183.62345927 -158 183 C-159.28187437 182.04119966 -160.5331293 181.04006043 -161.75 180 C-162.36359375 179.484375 -162.9771875 178.96875 -163.609375 178.4375 C-165 177 -165 177 -165 175 C-165.66 175 -166.32 175 -167 175 C-167 174.34 -167 173.68 -167 173 C-167.66 173 -168.32 173 -169 173 C-169 172.34 -169 171.68 -169 171 C-169.8353125 170.6596875 -169.8353125 170.6596875 -170.6875 170.3125 C-173.65253447 168.6296426 -175.65353689 166.46378626 -178 164 C-178.763125 163.278125 -179.52625 162.55625 -180.3125 161.8125 C-182 160 -182 160 -182 158 C-182.66 158 -183.32 158 -184 158 C-183.505 157.01 -183.505 157.01 -183 156 C-182.33613281 156.32226562 -181.67226562 156.64453125 -180.98828125 156.9765625 C-174.3640042 159.24526915 -164.07935993 159.46497397 -157.625 156.5625 C-152.56936854 153.41108215 -148.26780335 149.11853201 -144 145 C-143.26136719 144.28972656 -142.52273437 143.57945312 -141.76171875 142.84765625 C-138.78672334 139.92868712 -135.93088364 136.99451886 -133.3125 133.75 C-131.0712693 131.08475268 -128.73768791 129.12931282 -126 127 C-125.67 126.34 -125.34 125.68 -125 125 C-124.34 125 -123.68 125 -123 125 C-122.505 123.515 -122.505 123.515 -122 122 C-119.5625 119.3125 -119.5625 119.3125 -117 117 C-116.34 117 -115.68 117 -115 117 C-115 116.34 -115 115.68 -115 115 C-113.71484375 113.7734375 -113.71484375 113.7734375 -111.9375 112.375 C-108.33776919 109.41912348 -105.42531925 106.13757547 -102.48046875 102.5390625 C-101.99191406 102.03117187 -101.50335938 101.52328125 -101 101 C-100.34 101 -99.68 101 -99 101 C-99 100.34 -99 99.68 -99 99 C-98.34 99 -97.68 99 -97 99 C-96.72751088 98.40247138 -96.45502176 97.80494276 -96.1742754 97.18930721 C-95.0278033 95.05183619 -93.9195427 93.67264827 -92.21159363 91.97108459 C-91.36006462 91.11543159 -91.36006462 91.11543159 -90.49133301 90.24249268 C-89.56012634 89.32207184 -89.56012634 89.32207184 -88.61010742 88.38305664 C-87.95460403 87.7272612 -87.29910065 87.07146576 -86.62373352 86.39579773 C-84.4556856 84.22914289 -82.28063626 82.06966151 -80.10546875 79.91015625 C-78.59529213 78.40371192 -77.08555807 76.89682381 -75.57624817 75.38951111 C-71.59919708 71.42009672 -67.61618189 67.45671953 -63.63189697 63.49456787 C-59.58890968 59.47197268 -55.55151025 55.44377806 -51.51367188 51.41601562 C-44.98463783 44.90456151 -38.4521876 38.39655844 -31.91525269 31.89303589 C-28.60555773 28.59994451 -25.29991479 25.30289975 -22 22 C-14.66666667 14.66666667 -7.33333333 7.33333333 0 0 Z " fill="#517DE9" transform="translate(333,91)"/>
<path d="M0 0 C0.58203125 1.890625 0.58203125 1.890625 1 4 C-0.3125 5.75 -0.3125 5.75 -2 7 C-2.66 7 -3.32 7 -4 7 C-4.0928125 7.804375 -4.0928125 7.804375 -4.1875 8.625 C-5.15879987 11.46418425 -6.83665829 13.19496425 -8.80078125 15.41796875 C-10.5422265 17.71531509 -11.1506637 20.26999046 -12 23 C-12.98020375 24.0194119 -13.97803008 25.02246356 -15 26 C-15.71447643 28.10332891 -15.71447643 28.10332891 -16 30 C-18.64 29.67 -21.28 29.34 -24 29 C-24.45375 29.94875 -24.9075 30.8975 -25.375 31.875 C-27 35 -27 35 -29 37 C-29 37.99 -29 38.98 -29 40 C-30.82193842 41.9249647 -32.89235283 43.37535531 -35 45 C-35.66 44.67 -36.32 44.34 -37 44 C-39.09012603 45.80510884 -40.00096499 47.0025331 -41 49.625 C-41.33 50.40875 -41.66 51.1925 -42 52 C-43.485 52.495 -43.485 52.495 -45 53 C-45 52.34 -45 51.68 -45 51 C-45.66 50.67 -46.32 50.34 -47 50 C-47.0825 51.093125 -47.165 52.18625 -47.25 53.3125 C-48 57 -48 57 -49.8125 59 C-52 60 -52 60 -53.9375 59.4375 C-54.618125 59.293125 -55.29875 59.14875 -56 59 C-58.75256794 60.85164036 -58.75256794 60.85164036 -61 63 C-59.55922954 59.63820226 -57.75249979 57.40843732 -55 55 C-54.34 55 -53.68 55 -53 55 C-53 54.34 -53 53.68 -53 53 C-52.34 53 -51.68 53 -51 53 C-50.76745514 52.44213806 -50.53491028 51.88427612 -50.2953186 51.30950928 C-48.66299793 48.3991367 -46.64179046 46.40260179 -44.27490234 44.04785156 C-43.79668533 43.5693425 -43.31846832 43.09083344 -42.82575989 42.5978241 C-41.25051517 41.02396805 -39.66831465 39.45730707 -38.0859375 37.890625 C-36.98976787 36.79818714 -35.89404019 35.70530566 -34.79873657 34.61199951 C-31.91960112 31.74048758 -29.03450944 28.87503346 -26.14813232 26.01080322 C-23.20190185 23.08505874 -20.26134931 20.15361986 -17.3203125 17.22265625 C-11.55241412 11.47618518 -5.77821036 5.73610194 0 0 Z M-47 53 C-46.34 53 -45.68 53 -45 53 C-45 53.66 -45 54.32 -45 55 C-45.66 55 -46.32 55 -47 55 C-47 54.34 -47 53.68 -47 53 Z " fill="#5782E3" transform="translate(287,137)"/>
<path d="M0 0 C0.33 0 0.66 0 1 0 C0.99907821 0.74431652 0.99815641 1.48863304 0.99720669 2.25550461 C0.97502035 20.4550564 0.95852497 38.65460546 0.94818783 56.85416794 C0.94305465 65.65571329 0.93606944 74.45724955 0.92456055 83.25878906 C0.91452194 90.93964369 0.90812498 98.62049173 0.90591151 106.30135274 C0.90461981 110.3597109 0.90163357 114.41805023 0.89426994 118.47640228 C0.86539301 135.007591 0.87842761 151.49728356 2 168 C1.67 167.01 1.34 166.02 1 165 C0.34 165 -0.32 165 -1 165 C-1.80657413 160.75287576 -2.12731825 156.74149665 -2.13371277 152.42098999 C-2.14011024 150.46099815 -2.14011024 150.46099815 -2.14663696 148.46141052 C-2.14628751 147.02554318 -2.14582601 145.58967587 -2.14526367 144.15380859 C-2.1482578 142.63233864 -2.15166091 141.11086945 -2.15544128 139.58940125 C-2.16425628 135.46771452 -2.16661825 131.34604856 -2.16725707 127.22435331 C-2.1679686 124.64899321 -2.17010478 122.07363837 -2.17275429 119.49827957 C-2.18199698 110.51349808 -2.18609022 101.5287314 -2.18530273 92.54394531 C-2.18470111 84.16759586 -2.19527232 75.79131062 -2.2110464 67.41497743 C-2.22411183 60.22079521 -2.2294871 53.02663402 -2.22884732 45.83244002 C-2.22859219 41.53656924 -2.23145225 37.24075566 -2.24202538 32.9448967 C-2.25169044 28.90819313 -2.25179654 24.87160165 -2.24450874 20.83489418 C-2.24346116 19.35301487 -2.24583608 17.87112864 -2.2518692 16.38926125 C-2.25956665 14.36786914 -2.25375513 12.34643898 -2.24723816 10.32504272 C-2.24778293 9.19349951 -2.24832769 8.06195629 -2.24888897 6.89612389 C-2.00500601 4.058251 -1.47505239 2.40414396 0 0 Z " fill="#507CD9" transform="translate(18,88)"/>
<path d="M0 0 C0.02316936 11.51780108 0.04093856 23.03559661 0.05181217 34.55341625 C0.05703092 39.90158601 0.06411033 45.24973981 0.07543945 50.59790039 C0.08630406 55.75907358 0.09228444 60.92023143 0.09487724 66.08141518 C0.09672503 68.05058343 0.10033327 70.01975085 0.10573006 71.98891258 C0.11298786 74.74677724 0.11398893 77.5045785 0.11352539 80.26245117 C0.1189183 81.4838102 0.1189183 81.4838102 0.12442017 82.72984314 C0.11735907 86.61173832 -0.04828328 90.2273387 -1 94 C-1.33 94 -1.66 94 -2 94 C-2.33 64.96 -2.66 35.92 -3 6 C-3.66 6 -4.32 6 -5 6 C-5.268125 6.639375 -5.53625 7.27875 -5.8125 7.9375 C-7 10 -7 10 -10 11 C-10 9 -10 9 -7.75 6.625 C-6.8425 5.75875 -5.935 4.8925 -5 4 C-4.2575 3.236875 -3.515 2.47375 -2.75 1.6875 C-1 0 -1 0 0 0 Z M-12 11 C-11.01 11.495 -11.01 11.495 -10 12 C-10.99 12.495 -10.99 12.495 -12 13 C-12 12.34 -12 11.68 -12 11 Z M-14 13 C-13.34 13.33 -12.68 13.66 -12 14 C-13.98 14.99 -13.98 14.99 -16 16 C-15.34 15.01 -14.68 14.02 -14 13 Z " fill="#3962C8" transform="translate(335,154)"/>
<path d="M0 0 C0.66 0.33 1.32 0.66 2 1 C3.27572418 8.61770681 3.13506483 16.26003199 3.11352539 23.96508789 C3.11324282 25.35556028 3.11340261 26.74603282 3.1139679 28.13650513 C3.11425315 31.88586588 3.10840048 35.63519421 3.10139394 39.38454747 C3.09511504 43.31230709 3.09455303 47.24006756 3.09336853 51.16783142 C3.09026854 58.59426715 3.0820732 66.02068805 3.07201904 73.44711727 C3.06081642 81.90665512 3.05533702 90.36619369 3.05032361 98.82573712 C3.0398894 116.21716664 3.02231588 133.60858175 3 151 C2.67 151 2.34 151 2 151 C1.82683544 137.541745 1.66050967 124.08341194 1.5 110.625 C1.48812275 109.62945099 1.4762455 108.63390198 1.46400833 107.60818481 C1.0581939 73.40321909 0.86179271 39.20736688 1 5 C-1.31 5.66 -3.62 6.32 -6 7 C-4.77065985 3.31197956 -3.06140622 2.27643027 0 0 Z " fill="#AAC4EA" transform="translate(333,91)"/>
<path d="M0 0 C1.49943535 0.00056567 2.99887125 0.00024452 4.49830627 -0.00088501 C8.52638348 -0.00145345 12.55433898 0.01021739 16.58238816 0.02426291 C20.80774186 0.0368561 25.03309906 0.03794748 29.25846863 0.04031372 C37.24082132 0.04650345 45.22311852 0.06287995 53.2054469 0.0830127 C62.30109349 0.10545023 71.39674288 0.11638479 80.4924103 0.12640357 C99.18531984 0.1472487 117.8781779 0.18237536 136.57104492 0.22705078 C136.57104492 0.55705078 136.57104492 0.88705078 136.57104492 1.22705078 C135.49567459 1.23339869 135.49567459 1.23339869 134.3985796 1.23987484 C116.95531772 1.3431749 99.51209727 1.45181172 82.06890583 1.56639004 C73.63351631 1.62167048 65.19812255 1.67514394 56.76269531 1.72436523 C49.41047136 1.76727054 42.0582779 1.81356449 34.70610112 1.86392933 C30.81311872 1.89047916 26.92014216 1.91533087 23.0271244 1.9361248 C19.36230821 1.95575337 15.69754978 1.9799155 12.03278542 2.00754166 C10.04778625 2.02132878 8.06275559 2.03032065 6.07772827 2.03916931 C4.89287338 2.04895813 3.70801849 2.05874695 2.48725891 2.0688324 C1.45945973 2.07528495 0.43166056 2.0817375 -0.62728405 2.08838558 C-3.33003672 2.22215494 -5.79012424 2.65170866 -8.42895508 3.22705078 C-10.04857005 3.30354859 -11.67084953 3.33516759 -13.29223633 3.32470703 C-14.62158203 3.31987305 -14.62158203 3.31987305 -15.9777832 3.31494141 C-16.88979492 3.3065625 -17.80180664 3.29818359 -18.74145508 3.28955078 C-19.67280273 3.28503906 -20.60415039 3.28052734 -21.5637207 3.27587891 C-23.85219881 3.26414312 -26.14054316 3.24772441 -28.42895508 3.22705078 C-28.42895508 2.89705078 -28.42895508 2.56705078 -28.42895508 2.22705078 C-18.89802344 0.44820475 -9.67700316 -0.05189844 0 0 Z " fill="#5075CA" transform="translate(115.428955078125,9.77294921875)"/>
<path d="M0 0 C2.05078125 0.03255208 4.1015625 0.06510417 6.15234375 0.09765625 C-0.53257133 6.78257133 -13.50013587 5.42502863 -22.21798325 5.44583607 C-25.62069863 5.43729569 -29.0231397 5.41421714 -32.42578125 5.390625 C-34.80759411 5.38502175 -37.18941046 5.3807551 -39.57122803 5.37776184 C-45.80517313 5.36637052 -52.0389047 5.3369529 -58.27276611 5.3036499 C-64.64796054 5.27282532 -71.02318985 5.25923013 -77.3984375 5.24414062 C-89.88160363 5.2120774 -102.36461211 5.1609508 -114.84765625 5.09765625 C-114.84765625 4.76765625 -114.84765625 4.43765625 -114.84765625 4.09765625 C-113.62434601 4.08734879 -112.40103577 4.07704132 -111.14065552 4.06642151 C-99.63320171 3.96882422 -88.12580364 3.86610333 -76.61844063 3.75831699 C-70.70186379 3.70306404 -64.78528203 3.64964025 -58.86865234 3.6003418 C-53.16280578 3.55273324 -47.45702076 3.50039173 -41.75124741 3.4447155 C-39.57028605 3.42427602 -37.38930781 3.40556562 -35.2083168 3.38858223 C-32.16241578 3.36457347 -29.11663183 3.3345141 -26.07080078 3.30297852 C-24.70702805 3.29434532 -24.70702805 3.29434532 -23.31570435 3.28553772 C-18.94415155 3.36829938 -18.94415155 3.36829938 -14.84765625 2.09765625 C-11.73496334 1.78333102 -8.62148047 1.58675751 -5.5 1.37890625 C-2.83275311 1.09607595 -2.44453984 0.12920401 0 0 Z " fill="#315FD5" transform="translate(267.84765625,322.90234375)"/>
<path d="M0 0 C9.59453303 6.15034169 9.59453303 6.15034169 13 10 C11.89973587 13.3007924 11.17290663 13.92480282 8.5625 16.0625 C-0.29818384 23.13962806 -0.29818384 23.13962806 -7 32 C-7.66 32 -8.32 32 -9 32 C-9.33 32.66 -9.66 33.32 -10 34 C-9.67 32.35 -9.34 30.7 -9 29 C-8.01 28.67 -7.02 28.34 -6 28 C-4.35179805 25.39757586 -4 24.13751221 -4 21 C-3.01 21 -2.02 21 -1 21 C-0.34 19.68 0.32 18.36 1 17 C1.66 17 2.32 17 3 17 C3 16.34 3 15.68 3 15 C4.32 15 5.64 15 7 15 C7 14.01 7 13.02 7 12 C6.34 11.67 5.68 11.34 5 11 C4 10 4 10 3.9375 7.4375 C3.958125 6.633125 3.97875 5.82875 4 5 C3.34 5 2.68 5 2 5 C2 4.34 2 3.68 2 3 C1.34 3 0.68 3 0 3 C0 2.01 0 1.02 0 0 Z " fill="#557CD8" transform="translate(294,26)"/>
<path d="M0 0 C0.58203125 1.890625 0.58203125 1.890625 1 4 C-0.3125 5.75 -0.3125 5.75 -2 7 C-2.66 7 -3.32 7 -4 7 C-4.0928125 7.804375 -4.0928125 7.804375 -4.1875 8.625 C-5.15879987 11.46418425 -6.83665829 13.19496425 -8.80078125 15.41796875 C-10.5422265 17.71531509 -11.1506637 20.26999046 -12 23 C-12.98020375 24.0194119 -13.97803008 25.02246356 -15 26 C-15.33 27.32 -15.66 28.64 -16 30 C-18.64 29.34 -21.28 28.68 -24 28 C-22.5993784 24.498446 -21.37735911 23.53516323 -18 22 C-15.65985258 20.1998866 -15.0573356 19.22867569 -14.328125 16.3203125 C-12.55522199 11.88805498 -9.80207307 9.36168013 -6.375 6.125 C-5.45847656 5.23554688 -5.45847656 5.23554688 -4.5234375 4.328125 C-3.02458427 2.87611093 -1.51349075 1.43675037 0 0 Z " fill="#5680E6" transform="translate(287,137)"/>
<path d="M0 0 C0 19.14 0 38.28 0 58 C-0.33 58 -0.66 58 -1 58 C-1.33 39.85 -1.66 21.7 -2 3 C-2.66 3 -3.32 3 -4 3 C-4 3.66 -4 4.32 -4 5 C-5.3125 6.625 -5.3125 6.625 -7 8 C-7.99 8 -8.98 8 -10 8 C-10 8.66 -10 9.32 -10 10 C-12.31 10.66 -14.62 11.32 -17 12 C-7.19101124 0 -7.19101124 0 0 0 Z " fill="#567FDD" transform="translate(334,96)"/>
<path d="M0 0 C0.33 0.66 0.66 1.32 1 2 C-0.4375 4.625 -0.4375 4.625 -2 7 C-1.01 6.67 -0.02 6.34 1 6 C0.34 7.98 -0.32 9.96 -1 12 C-1.7425 11.938125 -2.485 11.87625 -3.25 11.8125 C-6.48254392 12.03290072 -7.5559677 12.97735258 -10 15 C-10.66 15 -11.32 15 -12 15 C-12 15.99 -12 16.98 -12 18 C-11.34 18 -10.68 18 -10 18 C-10.33 18.99 -10.66 19.98 -11 21 C-11.94875 20.938125 -12.8975 20.87625 -13.875 20.8125 C-15.421875 20.9053125 -15.421875 20.9053125 -17 21 C-17.66 21.99 -18.32 22.98 -19 24 C-20.32 23.67 -21.64 23.34 -23 23 C-15.33333333 15.33333333 -7.66666667 7.66666667 0 0 Z " fill="#6086DF" transform="translate(316,108)"/>
<path d="M0 0 C1.32 0.33 2.64 0.66 4 1 C0.13082319 5.72899388 -4.00302036 10.11269322 -8.3125 14.4375 C-8.85229492 14.98180664 -9.39208984 15.52611328 -9.94824219 16.08691406 C-13.87627307 20 -13.87627307 20 -15 20 C-15.29795219 17.07013677 -15.50687865 14.85647239 -15 12 C-11.9587721 8.52431097 -10.25711841 7.11639985 -5.625 6.6875 C-4.325625 6.8421875 -4.325625 6.8421875 -3 7 C-3 5.68 -3 4.36 -3 3 C-2.01 3 -1.02 3 0 3 C0 2.01 0 1.02 0 0 Z " fill="#4B77DE" transform="translate(249,90)"/>
<path d="M0 0 C0.66 0.33 1.32 0.66 2 1 C-1.38872633 4.58806317 -4.76141332 7.45684799 -9 10 C-9.66 10 -10.32 10 -11 10 C-11.33 11.32 -11.66 12.64 -12 14 C-12.99 14 -13.98 14 -15 14 C-15 14.66 -15 15.32 -15 16 C-15.66 16 -16.32 16 -17 16 C-17 16.66 -17 17.32 -17 18 C-17.5775 18.103125 -18.155 18.20625 -18.75 18.3125 C-21.32049158 19.09792798 -22.93657284 20.30504197 -25 22 C-20.64613402 12.51185809 -9.1695374 4.5847687 0 0 Z " fill="#7797DE" transform="translate(64,21)"/>
<path d="M0 0 C1.98 0 3.96 0 6 0 C2.2698595 4.53665737 -1.67053566 8.77941122 -5.8125 12.9375 C-6.30468018 13.43419189 -6.79686035 13.93088379 -7.30395508 14.44262695 C-10.87624634 18 -10.87624634 18 -12 18 C-12.36871508 12.46927374 -12.36871508 12.46927374 -10.625 10.25 C-9.820625 9.63125 -9.820625 9.63125 -9 9 C-8.34 8.34 -7.68 7.68 -7 7 C-6.34 7.33 -5.68 7.66 -5 8 C-4.67 6.68 -4.34 5.36 -4 4 C-2.35 4 -0.7 4 1 4 C0.67 2.68 0.34 1.36 0 0 Z " fill="#537ED9" transform="translate(209,129)"/>
<path d="M0 0 C1.32 0 2.64 0 4 0 C3.44147333 5.4367976 2.06042383 9.9183367 -0.0625 14.9375 C-0.34416016 15.62134766 -0.62582031 16.30519531 -0.91601562 17.00976562 C-1.6035405 18.67613946 -2.30076175 20.33850727 -3 22 C-3.99 22 -4.98 22 -6 22 C-5.65044775 18.32970141 -5.19545454 16.26874999 -3 13.25 C-0.32847633 8.90877404 -0.1980521 5.01071825 0 0 Z " fill="#6389DE" transform="translate(329,256)"/>
<path d="M0 0 C0 0.33 0 0.66 0 1 C-11.03691812 3.25572049 -21.78461253 3.20127315 -33 3 C-33 2.67 -33 2.34 -33 2 C-21.96308188 -0.25572049 -11.21538747 -0.20127315 0 0 Z " fill="#547BD1" transform="translate(120,10)"/>
<path d="M0 0 C0.66 0.33 1.32 0.66 2 1 C0.03198508 4.73922835 -1.29746267 6.14873134 -5 8 C-5.2165625 8.8971875 -5.2165625 8.8971875 -5.4375 9.8125 C-6.53115706 14.06561078 -10.2207073 16.45630742 -13.6875 18.875 C-14.8321875 19.431875 -14.8321875 19.431875 -16 20 C-16.66 19.67 -17.32 19.34 -18 19 C-17.33613281 18.34773438 -16.67226562 17.69546875 -15.98828125 17.0234375 C-11.42076374 12.50259535 -7.02848535 8.00508786 -3 3 C-2.01709032 1.98319689 -1.02665213 0.97261781 0 0 Z " fill="#6286DC" transform="translate(205,219)"/>
<path d="M0 0 C1.1079276 3.32378281 1.11204374 5.66386877 0 9 C-1.8125 10.875 -1.8125 10.875 -4 12 C-4.639375 11.814375 -5.27875 11.62875 -5.9375 11.4375 C-6.9584375 11.2209375 -6.9584375 11.2209375 -8 11 C-10.75256794 12.85164036 -10.75256794 12.85164036 -13 15 C-11.55922954 11.63820226 -9.75249979 9.40843732 -7 7 C-6.34 7 -5.68 7 -5 7 C-5 6.34 -5 5.68 -5 5 C-4.34 5 -3.68 5 -3 5 C-2.690625 4.360625 -2.38125 3.72125 -2.0625 3.0625 C-1 1 -1 1 0 0 Z " fill="#7C9DE3" transform="translate(239,185)"/>
<path d="M0 0 C9.58494583 0.22337797 18.01590099 2.94518089 27 6 C27 6.33 27 6.66 27 7 C21.75974157 7.20311079 17.41898286 6.53238422 12.375 5.125 C11.10398437 4.77695312 9.83296875 4.42890625 8.5234375 4.0703125 C5.59693006 3.18132909 2.81171688 2.19578764 0 1 C0 0.67 0 0.34 0 0 Z " fill="#5F85DF" transform="translate(72,321)"/>
<path d="M0 0 C2 1 2 1 3 3 C2.43410156 3.48210937 1.86820313 3.96421875 1.28515625 4.4609375 C0.55167969 5.09257812 -0.18179688 5.72421875 -0.9375 6.375 C-1.66839844 7.00148437 -2.39929688 7.62796875 -3.15234375 8.2734375 C-5.08380906 9.87747714 -5.08380906 9.87747714 -6 12 C-8.32156597 12.40729228 -10.6568787 12.74438677 -13 13 C-13 12.34 -13 11.68 -13 11 C-11.25998065 9.44038399 -9.45696803 7.95050425 -7.625 6.5 C-3.68517459 3.39240862 -3.68517459 3.39240862 0 0 Z " fill="#567EDF" transform="translate(231,195)"/>
<path d="M0 0 C0.33 0.99 0.66 1.98 1 3 C1.99 3.33 2.98 3.66 4 4 C4.12117188 4.65226562 4.24234375 5.30453125 4.3671875 5.9765625 C5.28943989 10.78646342 6.30167277 15.39025465 8 20 C7.34 20.66 6.68 21.32 6 22 C0.44419134 7.40318907 0.44419134 7.40318907 0 0 Z " fill="#5A80DB" transform="translate(18,253)"/>
<path d="M0 0 C0 4.73498345 -2.3236901 7.25432498 -5.4375 10.6875 C-7.62077804 12.6577753 -9.30670937 13.90273345 -12 15 C-12 15.66 -12 16.32 -12 17 C-13.32 16.67 -14.64 16.34 -16 16 C-10.72 10.72 -5.44 5.44 0 0 Z " fill="#89A1DD" transform="translate(256,168)"/>
<path d="M0 0 C5.66129431 4.69766975 10.85228904 9.74723372 16 15 C14 16 14 16 12.1875 15.4375 C9.16588347 13.45186628 7.26958324 10.79333322 5 8 C4.01 7.34 3.02 6.68 2 6 C2 5.34 2 4.68 2 4 C1.34 4 0.68 4 0 4 C0 2.68 0 1.36 0 0 Z " fill="#587FE1" transform="translate(112,211)"/>
<path d="M0 0 C2.05078125 0.03255208 4.1015625 0.06510417 6.15234375 0.09765625 C2.51934049 3.73065951 -2.8993962 4.27596716 -7.84765625 5.09765625 C-10.99815281 5.06240594 -13.73386192 4.66851854 -16.84765625 4.09765625 C-14.17064649 1.42064649 -12.51327425 1.74400195 -8.78515625 1.53515625 C-5.47376871 1.34222166 -2.91118073 0.1538679 0 0 Z " fill="#4B76DB" transform="translate(267.84765625,322.90234375)"/>
<path d="M0 0 C0.33 1.32 0.66 2.64 1 4 C-0.3125 5.75 -0.3125 5.75 -2 7 C-2.66 7 -3.32 7 -4 7 C-4.020625 7.5775 -4.04125 8.155 -4.0625 8.75 C-5.60679013 12.4562963 -8.4367181 13.31212963 -12 15 C-12.66 14.67 -13.32 14.34 -14 14 C-9.38 9.38 -4.76 4.76 0 0 Z " fill="#7F9BDD" transform="translate(287,137)"/>
<path d="M0 0 C1.75570312 0.01353516 1.75570312 0.01353516 3.546875 0.02734375 C4.43890625 0.03894531 5.3309375 0.05054688 6.25 0.0625 C6.25 0.7225 6.25 1.3825 6.25 2.0625 C7.9 2.0625 9.55 2.0625 11.25 2.0625 C11.25 2.7225 11.25 3.3825 11.25 4.0625 C9.765 3.93681641 9.765 3.93681641 8.25 3.80859375 C1.46202955 3.27177463 -5.00663655 2.82392304 -11.75 4.0625 C-11.42 3.0725 -11.09 2.0825 -10.75 1.0625 C-7.32735681 -0.36360133 -3.65120467 -0.03651205 0 0 Z " fill="#6184D9" transform="translate(110.75,137.9375)"/>
<path d="M0 0 C0.33 1.32 0.66 2.64 1 4 C0.01 4.33 -0.98 4.66 -2 5 C-2.33 5.99 -2.66 6.98 -3 8 C-3.61875 8.28875 -4.2375 8.5775 -4.875 8.875 C-7.23672471 9.87962174 -7.23672471 9.87962174 -8.4375 12.5625 C-10 15 -10 15 -12.6875 15.8125 C-13.450625 15.874375 -14.21375 15.93625 -15 16 C-10.30233025 10.33870569 -5.25276628 5.14771096 0 0 Z " fill="#839CE0" transform="translate(272,152)"/>
<path d="M0 0 C4.88049925 3.9419417 9.0580583 8.11950075 13 13 C11.68 13 10.36 13 9 13 C9 12.34 9 11.68 9 11 C7.68 10.67 6.36 10.34 5 10 C4.67 8.68 4.34 7.36 4 6 C2.68 5.67 1.36 5.34 0 5 C0 3.35 0 1.7 0 0 Z " fill="#4E76DC" transform="translate(87,186)"/>
<path d="M0 0 C0.66 0 1.32 0 2 0 C1.835 0.886875 1.67 1.77375 1.5 2.6875 C0.21965756 11.96998271 0.45643341 20.28873214 4 29 C3.34 29.33 2.68 29.66 2 30 C-2.02972523 25.10070248 -1.37466325 19.88221045 -1.25 13.875 C-1.24484375 12.87339844 -1.2396875 11.87179688 -1.234375 10.83984375 C-1.15518811 3.46556432 -1.15518811 3.46556432 0 0 Z " fill="#6A8FE8" transform="translate(82,155)"/>
<path d="M0 0 C0.66 0.33 1.32 0.66 2 1 C2.36625971 5.51720311 2.36625971 5.51720311 0.625 7.8125 C-1 9 -1 9 -3 9 C-3.33 9.99 -3.66 10.98 -4 12 C-4.33 12 -4.66 12 -5 12 C-5 9.69 -5 7.38 -5 5 C-4.34 5 -3.68 5 -3 5 C-2.87625 4.360625 -2.7525 3.72125 -2.625 3.0625 C-2.41875 2.381875 -2.2125 1.70125 -2 1 C-1.34 0.67 -0.68 0.34 0 0 Z " fill="#547BDF" transform="translate(265,72)"/>
<path d="M0 0 C0.99 0.33 1.98 0.66 3 1 C-0.50897269 5.18423892 -4.08060535 9.19588166 -8 13 C-11.875 11.25 -11.875 11.25 -13 9 C-10.69 9 -8.38 9 -6 9 C-5.8453125 8.1028125 -5.8453125 8.1028125 -5.6875 7.1875 C-4.90175967 4.68741714 -4.03081147 3.62464918 -2 2 C-1.34 2 -0.68 2 0 2 C0 1.34 0 0.68 0 0 Z " fill="#5D7FD9" transform="translate(172,168)"/>
<path d="M0 0 C1.32 0.33 2.64 0.66 4 1 C0.32167983 5.52615993 -3.41086363 9.39424999 -8 13 C-8.33 11.02 -8.66 9.04 -9 7 C-7.02 7 -5.04 7 -3 7 C-3 5.68 -3 4.36 -3 3 C-2.01 3 -1.02 3 0 3 C0 2.01 0 1.02 0 0 Z " fill="#7294DF" transform="translate(249,90)"/>
<path d="M0 0 C8.95348837 6.90697674 8.95348837 6.90697674 11 11 C7.70814262 11.36576193 6.41418168 11.3221413 3.75 9.25 C2.01500107 7.01928709 1.55855677 5.69969105 1 3 C0.34 2.67 -0.32 2.34 -1 2 C-0.67 1.34 -0.34 0.68 0 0 Z " fill="#4D78DA" transform="translate(136,235)"/>
<path d="M0 0 C1.39746302 4.19238905 -0.15968125 6.10701803 -2 10 C-2.33 10.66 -2.66 11.32 -3 12 C-4.32 12 -5.64 12 -7 12 C-6.67 11.01 -6.34 10.02 -6 9 C-5.34 9 -4.68 9 -4 9 C-4.0825 8.2575 -4.165 7.515 -4.25 6.75 C-3.92894816 3.21842973 -2.64734383 2.23369636 0 0 Z " fill="#678BE3" transform="translate(292,132)"/>
<path d="M0 0 C0.99 0.33 1.98 0.66 3 1 C2.34 2.65 1.68 4.3 1 6 C0.01 6 -0.98 6 -2 6 C-2 6.66 -2 7.32 -2 8 C-4.31 8.66 -6.62 9.32 -9 10 C-8.06409496 8.8944811 -7.12620142 7.79064547 -6.1875 6.6875 C-5.66542969 6.07261719 -5.14335937 5.45773438 -4.60546875 4.82421875 C-3.12827531 3.14575321 -1.59960869 1.56117966 0 0 Z " fill="#728EDB" transform="translate(326,98)"/>
<path d="M0 0 C0.99 0 1.98 0 3 0 C3 2.31 3 4.62 3 7 C-1.05281712 5.77472971 -4.44360764 4.30119506 -8 2 C-5.53925394 0.76962697 -3.7202437 1 -1 1 C-0.67 0.67 -0.34 0.34 0 0 Z " fill="#557FE2" transform="translate(69,314)"/>
<path d="M0 0 C0.33 0.66 0.66 1.32 1 2 C-0.30855553 3.83615081 -1.62194462 5.66885789 -2.9375 7.5 C-3.66839844 8.5209375 -4.39929688 9.541875 -5.15234375 10.59375 C-5.76207031 11.3878125 -6.37179687 12.181875 -7 13 C-7.33 13 -7.66 13 -8 13 C-8 11.02 -8 9.04 -8 7 C-7.01 7 -6.02 7 -5 7 C-4.67 5.68 -4.34 4.36 -4 3 C-3.34 3 -2.68 3 -2 3 C-2 2.34 -2 1.68 -2 1 C-1.34 0.67 -0.68 0.34 0 0 Z " fill="#5B84D8" transform="translate(321,283)"/>
<path d="M0 0 C-3.36128094 3.65786455 -6.34497737 6.1784694 -11 8 C-11.99 7.67 -12.98 7.34 -14 7 C-12 5.66666667 -10 4.33333333 -8 3 C-8 2.34 -8 1.68 -8 1 C-5.07175348 0.02391783 -3.04386724 -0.08226668 0 0 Z " fill="#678BE3" transform="translate(298,310)"/>
<path d="M0 0 C0.33 0 0.66 0 1 0 C1.28571429 7.42857143 1.28571429 7.42857143 -1 11 C-1.99 11 -2.98 11 -4 11 C-3.49172849 6.62886504 -2.54826592 3.61004338 0 0 Z " fill="#4D77D7" transform="translate(327,267)"/>
<path d="M0 0 C0.33 0 0.66 0 1 0 C1.02696365 1.79158489 1.04637917 3.58328473 1.0625 5.375 C1.07410156 6.37273437 1.08570313 7.37046875 1.09765625 8.3984375 C1 11 1 11 0 13 C-0.66 13 -1.32 13 -2 13 C-2.33 13.66 -2.66 14.32 -3 15 C-2.5547115 9.72684667 -1.91626837 4.98229776 0 0 Z " fill="#7296E0" transform="translate(20,75)"/>
<path d="M0 0 C0.66 0.99 1.32 1.98 2 3 C1.5359375 3.8353125 1.5359375 3.8353125 1.0625 4.6875 C-0.11878976 6.97253284 -0.11878976 6.97253284 -0.375 9.5625 C-1.16017454 12.62468071 -2.36146987 13.38283637 -5 15 C-4.43174347 9.45949887 -2.37113483 4.96284034 0 0 Z " fill="#7C9DE0" transform="translate(26,60)"/>
<path d="M0 0 C0.33 0.66 0.66 1.32 1 2 C-1.01577062 6.50584021 -3.83128248 8.49876949 -8 11 C-8.66 10.67 -9.32 10.34 -10 10 C-6.66666667 6.66666667 -3.33333333 3.33333333 0 0 Z " fill="#8199D7" transform="translate(316,108)"/>
<path d="M0 0 C0 3 0 3 -1.96875 5.26171875 C-2.8040625 6.06222656 -3.639375 6.86273438 -4.5 7.6875 C-5.3353125 8.49574219 -6.170625 9.30398437 -7.03125 10.13671875 C-7.6809375 10.75160156 -8.330625 11.36648437 -9 12 C-9.33 10.68 -9.66 9.36 -10 8 C-9.195625 7.5875 -8.39125 7.175 -7.5625 6.75 C-4.85890282 5.26547669 -4.85890282 5.26547669 -4.1875 2.8125 C-4.125625 2.214375 -4.06375 1.61625 -4 1 C-2.68 0.67 -1.36 0.34 0 0 Z " fill="#9AB3E6" transform="translate(282,60)"/>
<path d="M0 0 C2.64 0.66 5.28 1.32 8 2 C7.34 3.98 6.68 5.96 6 8 C1.125 3.375 1.125 3.375 0 0 Z " fill="#4374E9" transform="translate(152,250)"/>
<path d="M0 0 C1.98 0 3.96 0 6 0 C5.04578192 1.14926266 4.08647955 2.29430541 3.125 3.4375 C2.59132812 4.07558594 2.05765625 4.71367187 1.5078125 5.37109375 C0 7 0 7 -2 8 C-2 7.01 -2 6.02 -2 5 C-2.66 4.67 -3.32 4.34 -4 4 C-2.35 4 -0.7 4 1 4 C0.67 2.68 0.34 1.36 0 0 Z " fill="#688DDB" transform="translate(209,129)"/>
<path d="M0 0 C0.33 1.32 0.66 2.64 1 4 C0.01 4.33 -0.98 4.66 -2 5 C-2.0825 5.78375 -2.165 6.5675 -2.25 7.375 C-3 10 -3 10 -5.0625 11.3125 C-6.0215625 11.6528125 -6.0215625 11.6528125 -7 12 C-5.44298069 7.32894208 -2.91552627 3.91294315 0 0 Z " fill="#7A9ADC" transform="translate(34,48)"/>
<path d="M0 0 C0.66 0.33 1.32 0.66 2 1 C0.06187054 4.68244597 -1.23792732 6.30099943 -5 8 C-5.99 9.485 -5.99 9.485 -7 11 C-7.66 10.67 -8.32 10.34 -9 10 C-8.06409496 8.8944811 -7.12620142 7.79064547 -6.1875 6.6875 C-5.66542969 6.07261719 -5.14335937 5.45773438 -4.60546875 4.82421875 C-3.12827531 3.14575321 -1.59960869 1.56117966 0 0 Z " fill="#7BA1E1" transform="translate(205,219)"/>
<path d="M0 0 C0.99 0.33 1.98 0.66 3 1 C3.66666667 2.66666667 4.33333333 4.33333333 5 6 C5.99 6.33 6.98 6.66 8 7 C8 8.65 8 10.3 8 12 C4.72257902 8.89973691 2.06895163 6.02901106 0 2 C0 1.34 0 0.68 0 0 Z " fill="#7499E2" transform="translate(29,282)"/>
<path d="M0 0 C2.66666667 0.66666667 5.33333333 1.33333333 8 2 C8 3.98 8 5.96 8 8 C6.85073734 7.04578192 5.70569459 6.08647955 4.5625 5.125 C3.92441406 4.59132812 3.28632813 4.05765625 2.62890625 3.5078125 C1 2 1 2 0 0 Z " fill="#5F8AE0" transform="translate(151,169)"/>
<path d="M0 0 C0 3.66842255 -0.79029126 5.10451959 -3 8 C-5.6875 8.8125 -5.6875 8.8125 -8 9 C-7.04270084 7.87411986 -6.08412105 6.7493285 -5.125 5.625 C-4.59132813 4.99851563 -4.05765625 4.37203125 -3.5078125 3.7265625 C-2.38567993 2.44163349 -1.20628025 1.20628025 0 0 Z " fill="#8FA9E2" transform="translate(265,159)"/>
<path d="M0 0 C0.99 0 1.98 0 3 0 C1.50902342 3.7952131 -0.75700849 5.61042731 -4 8 C-4 6.35 -4 4.7 -4 3 C-2.68 3 -1.36 3 0 3 C0 2.01 0 1.02 0 0 Z " fill="#708FD9" transform="translate(221,119)"/>
<path d="M0 0 C-1.28650706 0.69710731 -2.57940665 1.38242876 -3.875 2.0625 C-4.95394531 2.63677734 -4.95394531 2.63677734 -6.0546875 3.22265625 C-6.69664062 3.47917969 -7.33859375 3.73570312 -8 4 C-8.66 3.67 -9.32 3.34 -10 3 C-9.67 2.01 -9.34 1.02 -9 0 C-5.5657338 -0.85856655 -3.38317487 -0.97591583 0 0 Z " fill="#628DE1" transform="translate(285,319)"/>
<path d="M0 0 C2.22825644 2.22825644 2.69239369 3.65761628 3.625 6.625 C4.01558594 7.85089844 4.01558594 7.85089844 4.4140625 9.1015625 C4.60742188 9.72804687 4.80078125 10.35453125 5 11 C4.01 11.495 4.01 11.495 3 12 C0.01485372 7.89542386 -0.2954439 5.02254631 0 0 Z " fill="#5279DD" transform="translate(81,173)"/>
<path d="M0 0 C1.32 0 2.64 0 4 0 C3.6875 2.375 3.6875 2.375 3 5 C2.01 5.66 1.02 6.32 0 7 C0 4.69 0 2.38 0 0 Z " fill="#6285DE" transform="translate(268,69)"/>
<path d="M0 0 C4.05281712 1.22527029 7.44360764 2.69880494 11 5 C9.1875 5.625 9.1875 5.625 7 6 C6.01 5.34 5.02 4.68 4 4 C4 3.34 4 2.68 4 2 C3.01 2.33 2.02 2.66 1 3 C0.67 2.01 0.34 1.02 0 0 Z " fill="#7D9EDF" transform="translate(281,19)"/>
<path d="M0 0 C1 2 1 2 0.4375 4 C-1.57302108 6.79724672 -3.74418077 7.15065585 -7 8 C-7 7.34 -7 6.68 -7 6 C-5.46875 4.4921875 -5.46875 4.4921875 -3.5 2.875 C-2.8503125 2.33617187 -2.200625 1.79734375 -1.53125 1.2421875 C-1.0259375 0.83226562 -0.520625 0.42234375 0 0 Z " fill="#7492D5" transform="translate(225,200)"/>
<path d="M0 0 C0.99 0.33 1.98 0.66 3 1 C0.69 3.31 -1.62 5.62 -4 8 C-4.66 7.34 -5.32 6.68 -6 6 C-4.625 4.5 -4.625 4.5 -3 3 C-2.34 3 -1.68 3 -1 3 C-0.67 2.01 -0.34 1.02 0 0 Z " fill="#6688D8" transform="translate(188,153)"/>
<path d="M0 0 C0.33 0.66 0.66 1.32 1 2 C1.99 2.33 2.98 2.66 4 3 C3.67 3.99 3.34 4.98 3 6 C1.35 5.67 -0.3 5.34 -2 5 C-1.125 1.125 -1.125 1.125 0 0 Z " fill="#3E71DA" transform="translate(222,114)"/>
<path d="M0 0 C0.66 0 1.32 0 2 0 C0.79618552 2.49361571 -0.45428722 4.68143083 -2 7 C-2.66 7 -3.32 7 -4 7 C-4.33 7.66 -4.66 8.32 -5 9 C-4.67 7.35 -4.34 5.7 -4 4 C-3.01 3.67 -2.02 3.34 -1 3 C-0.67 2.01 -0.34 1.02 0 0 Z " fill="#6E8ED5" transform="translate(289,51)"/>
<path d="M0 0 C0.33 0.66 0.66 1.32 1 2 C1.99 2.33 2.98 2.66 4 3 C4.625 5.375 4.625 5.375 5 8 C4.34 8.66 3.68 9.32 3 10 C0 3.375 0 3.375 0 0 Z " fill="#7994E6" transform="translate(21,265)"/>
<path d="M0 0 C0 3.57575896 -1.08840607 5.05295935 -3 8 C-4.32 7.67 -5.64 7.34 -7 7 C-4.69 4.69 -2.38 2.38 0 0 Z " fill="#96AEE3" transform="translate(256,168)"/>
<path d="M0 0 C0.33 1.32 0.66 2.64 1 4 C-0.1875 5.8125 -0.1875 5.8125 -2 7 C-3.32 6.67 -4.64 6.34 -6 6 C-4.02 4.02 -2.04 2.04 0 0 Z " fill="#89A0E0" transform="translate(287,137)"/>
<path d="M0 0 C3.375 0.6875 3.375 0.6875 7 2 C8.4375 4.625 8.4375 4.625 9 7 C5.18315774 5.44499019 2.80804268 2.96404505 0 0 Z " fill="#7095E3" transform="translate(45,303)"/>
<path d="M0 0 C0.33 0.66 0.66 1.32 1 2 C-0.98 4.97 -0.98 4.97 -3 8 C-3.66 6.68 -4.32 5.36 -5 4 C-4.01 3.67 -3.02 3.34 -2 3 C-2 2.34 -2 1.68 -2 1 C-1.34 0.67 -0.68 0.34 0 0 Z " fill="#6E97E5" transform="translate(321,283)"/>
<path d="M0 0 C2.475 0.495 2.475 0.495 5 1 C4.67 2.98 4.34 4.96 4 7 C1.49962266 4.82575883 0.56371414 3.26954202 0 0 Z " fill="#6A8DE6" transform="translate(25,275)"/>
<path d="M0 0 C2.97 0.495 2.97 0.495 6 1 C6 2.32 6 3.64 6 5 C6.66 5.33 7.32 5.66 8 6 C5 6 5 6 3.61328125 4.6875 C2.40885417 3.125 1.20442708 1.5625 0 0 Z " fill="#6E93E0" transform="translate(136,154)"/>
<path d="M0 0 C0 3.61537605 -0.89229241 5.11165997 -3 8 C-3.99 8 -4.98 8 -6 8 C-4.55746343 4.63408134 -2.66735273 2.48952921 0 0 Z " fill="#819ADA" transform="translate(305,119)"/>
<path d="M0 0 C2.64 0 5.28 0 8 0 C5.23776722 2.76223278 2.79293383 2.57856291 -1 3 C-0.67 2.01 -0.34 1.02 0 0 Z " fill="#6488E0" transform="translate(266,323)"/>
<path d="M0 0 C0.66 0 1.32 0 2 0 C2.5625 1.9375 2.5625 1.9375 3 4 C2 5 2 5 -0.5625 5.0625 C-1.7690625 5.0315625 -1.7690625 5.0315625 -3 5 C-1.625 2.5 -1.625 2.5 0 0 Z " fill="#6D8EDD" transform="translate(216,208)"/>
<path d="M0 0 C0.99 0.33 1.98 0.66 3 1 C0.03 3.475 0.03 3.475 -3 6 C-3 5.01 -3 4.02 -3 3 C-3.66 2.67 -4.32 2.34 -5 2 C-4.34 1.67 -3.68 1.34 -3 1 C-2.01 1.33 -1.02 1.66 0 2 C0 1.34 0 0.68 0 0 Z " fill="#6A90DB" transform="translate(194,147)"/>
<path d="M0 0 C2.375 0.25 2.375 0.25 5 1 C6.3125 3.0625 6.3125 3.0625 7 5 C3.34683329 3.75023244 2.21934164 3.32901247 0 0 Z " fill="#7494E0" transform="translate(54,310)"/>
<path d="M0 0 C0.66 0.33 1.32 0.66 2 1 C0.02 3.97 0.02 3.97 -2 7 C-4 6 -4 6 -5 3 C-2.625 1.4375 -2.625 1.4375 0 0 Z " fill="#577EDB" transform="translate(278,149)"/>
<path d="M0 0 C2.475 0.495 2.475 0.495 5 1 C5.33 2.65 5.66 4.3 6 6 C3.97945196 4.35830472 1.97956942 2.69088222 0 1 C0 0.67 0 0.34 0 0 Z " fill="#7695E0" transform="translate(130,148)"/>
</svg>
